<?xml version="1.0" standalone="no"?>
<!DOCTYPE svg PUBLIC "-//W3C//DTD SVG 20010904//EN"
 "http://www.w3.org/TR/2001/REC-SVG-20010904/DTD/svg10.dtd">
<svg version="1.0" xmlns="http://www.w3.org/2000/svg"
 width="500.000000pt" height="500.000000pt" viewBox="0 0 500.000000 500.000000"
 preserveAspectRatio="xMidYMid meet">

<g transform="translate(0.000000,500.000000) scale(0.100000,-0.100000)"
fill="#0077B6" stroke="none">
<path d="M1050 3290 l0 -1630 -85 0 -85 0 0 1625 c0 949 -4 1625 -9 1625 -5 0
-37 -9 -72 -20 -162 -50 -300 -189 -352 -355 l-22 -70 0 -1715 0 -1715 22 -70
c43 -136 151 -263 276 -325 34 -17 101 -38 147 -47 47 -9 91 -17 98 -19 9 -3
12 -57 12 -228 l0 -225 26 -20 c44 -35 37 -37 289 100 l70 38 145 -79 c80 -44
155 -79 167 -80 12 0 35 11 50 24 l28 24 3 226 3 226 1380 0 1381 0 29 29 29
29 0 2106 c0 1521 -3 2112 -11 2129 -6 14 -22 30 -36 36 -17 8 -507 11 -1753
11 l-1730 0 0 -1630z m1834 914 c83 -21 188 -78 250 -135 l52 -47 55 18 c134
46 270 35 407 -31 334 -161 411 -609 150 -871 l-58 -58 -2 -277 -3 -278 -195
0 -195 0 -5 167 c-6 188 -11 202 -75 202 -64 0 -69 -14 -75 -202 l-5 -167
-185 0 -185 0 -5 162 c-5 150 -7 164 -27 184 -31 32 -80 30 -110 -5 -22 -26
-23 -34 -23 -187 l0 -159 -184 0 -184 0 -4 164 c-3 178 -9 197 -64 210 -32 8
-82 -18 -89 -47 -3 -12 -6 -89 -8 -172 l-2 -150 -192 -3 -193 -2 0 277 0 277
-50 48 c-64 61 -121 149 -146 224 -27 83 -27 265 0 348 53 162 189 292 366
352 76 26 232 24 315 -3 l61 -20 54 49 c59 53 166 111 245 133 70 19 234 18
309 -1z m854 -1933 c5 -175 -29 -246 -128 -271 -32 -7 -302 -10 -905 -8 -847
3 -861 3 -895 24 -19 11 -45 35 -57 54 -21 30 -23 45 -23 167 l0 133 1003 -2
1002 -3 3 -94z m682 -916 l0 -155 -1694 0 -1693 0 -27 -21 -26 -20 0 -211 0
-211 -57 6 c-201 18 -357 206 -340 409 8 97 46 174 118 243 65 62 120 90 200
104 30 5 822 9 1787 10 l1732 1 0 -155z m0 -465 l0 -150 -1330 0 -1330 0 0
150 0 150 1330 0 1330 0 0 -150z"/>
</g>
</svg>